<svg width="18" height="18" viewBox="0 0 18 18" fill="none" xmlns="http://www.w3.org/2000/svg"><path d="M11.58 15.429H9.007c-.094 0-.17.03-.231.09a.313.313 0 00-.09.231v1.928c0 .095.03.171.09.232.06.06.137.09.231.09h2.571c.094 0 .171-.03.231-.09s.09-.137.09-.232V15.75a.31.31 0 00-.09-.23.312.312 0 00-.23-.091zm-4.822-1.286H4.829V.32c0-.093-.03-.17-.09-.23A.313.313 0 004.508 0H2.579c-.093 0-.17.03-.23.09a.314.314 0 00-.091.231v13.822H.329a.299.299 0 00-.301.2c-.054.128-.03.245.07.352l3.214 3.215c.074.06.151.09.232.09.087 0 .164-.03.23-.09l3.205-3.205c.067-.08.1-.16.1-.24a.315.315 0 00-.09-.232.314.314 0 00-.231-.09zm6.75-3.857h-4.5c-.094 0-.17.03-.231.09a.313.313 0 00-.09.231v1.929a.31.31 0 00.32.321h4.5c.095 0 .172-.03.232-.09.06-.06.09-.137.09-.231v-1.929a.31.31 0 00-.09-.23.312.312 0 00-.231-.091zM17.596.09a.314.314 0 00-.23-.09H9.007c-.094 0-.17.03-.231.09a.314.314 0 00-.09.231V2.25c0 .094.03.17.09.231.06.06.137.09.231.09h8.357c.094 0 .17-.03.231-.09.06-.06.09-.137.09-.231V.321c0-.093-.03-.17-.09-.23zm-2.159 5.053h-6.43c-.093 0-.17.03-.23.09a.313.313 0 00-.09.231v1.929c0 .094.03.17.09.231.06.06.137.09.23.09h6.43c.093 0 .17-.03.23-.09s.09-.137.09-.231V5.464c0-.093-.03-.17-.09-.23a.314.314 0 00-.23-.091z" fill="#1D1D1D"/></svg>