<svg xmlns="http://www.w3.org/2000/svg" width="16" height="16" viewBox="0 0 16 16"><path d="M3.714 13.25H5.43v-.875H3.714v.875zm2.572 0h.857v-.875h-.857v.875zm6.857-6.562a.434.434 0 00-.429-.439h-3v4.376H6.286V6.249h-3a.434.434 0 00-.429.439v7c0 .24.192.437.429.437h9.428a.434.434 0 00.429-.437v-7zm-1.981-4.813H8.999l.572 3.5h3.253l-1.662-3.5zM7.142 9.75h1.715v-3.5H7.143v3.5zm.76-7.478l-.76 3.103h1.715l-.76-3.103a.1.1 0 00-.194 0zm-3.064-.397l-1.664 3.5h3.254L7 1.875H4.838zM14 14.125a.866.866 0 01-.857.875H2.857A.865.865 0 012 14.125V6.249c0-.09.025-.172.05-.253a.433.433 0 01.012-.41l2.077-4.372c.078-.132.213-.187.358-.2C4.522 1.01 4.545 1 4.57 1h6.858c.026 0 .05.01.074.015.144.012.28.067.358.2l2.077 4.371a.43.43 0 01.011.41.82.82 0 01.051.253v7.876z" fill="#1D1D1D" fill-rule="evenodd"/></svg>