<svg width="32" height="24" viewBox="0 0 32 24" xmlns="http://www.w3.org/2000/svg" xmlns:xlink="http://www.w3.org/1999/xlink"><defs><path id="a" d="M0 0h32v24H0z"/><path id="c" d="M0 0h32v24H0z"/></defs><g fill="none" fill-rule="evenodd"><mask id="b" fill="#fff"><use xlink:href="#a"/></mask><g mask="url(#b)"><mask id="d" fill="#fff"><use xlink:href="#c"/></mask><use fill="#E31D1C" xlink:href="#c"/><path d="M15.873 4.066c1.852.029 4.093 1.147 4.717 2.694 0 0-2.051-1.23-4.415-.709-2.363.522-3.888 2.574-3.95 5.033-.065 2.626 1.581 4.448 3.713 5.013 2.132.564 4.41-.65 4.41-.65-.29.81-1.65 2.701-4.449 2.657-3.491-.055-7.417-2.65-7.307-7.084.107-4.276 3.832-7.009 7.28-6.954zm5.002 4.08l1.555 1.791 2.233-.708-1.397 1.88 2.045 1.82-2.616-.235-1.62 1.875.086-2.536-2.392-.891 2.147-.746-.04-2.25z" fill="#F7FCFF" mask="url(#d)" transform="rotate(-1 16.95 11.085)"/></g></g></svg>