<svg width="32" height="24" viewBox="0 0 32 24" xmlns="http://www.w3.org/2000/svg" xmlns:xlink="http://www.w3.org/1999/xlink"><defs><path id="a" d="M0 0h32v24H0z"/></defs><g fill="none" fill-rule="evenodd"><mask id="b" fill="#fff"><use xlink:href="#a"/></mask><g mask="url(#b)"><path fill="#F7FCFF" d="M0 0h32v24H0z"/><path fill="#E31D1C" d="M0 14.667h32v2H0zm0 3.666h32v2H0zm0-11h32v2H0zM0 22h32v2H0zm0-11h32v2H0zM0 0h32v2H0zm0 3.667h32v2H0z"/><path fill="#2E42A5" d="M0 0h20v13H0z"/><path d="M1.721 9.229l.331.739h.718l-.564.574.218.906-.702-.51-.726.51.245-.906-.644-.574h.842l.282-.739zm4 0l.331.739h.718l-.564.574.218.906-.702-.51-.726.51.245-.906-.644-.574h.842l.282-.739zm4 0l.331.739h.718l-.564.574.218.906-.702-.51-.726.51.245-.906-.644-.574h.842l.282-.739zm4 0l.331.739h.718l-.564.574.218.906-.702-.51-.726.51.245-.906-.644-.574h.842l.282-.739zm4 0l.331.739h.718l-.564.574.218.906-.702-.51-.726.51.245-.906-.644-.574h.842l.282-.739zm-14-2l.331.739h.718l-.564.574.218.906-.702-.51-.726.51.245-.906-.644-.574h.842l.282-.739zm4 0l.331.739h.718l-.564.574.218.906-.702-.51-.726.51.245-.906-.644-.574h.842l.282-.739zm4 0l.331.739h.718l-.564.574.218.906-.702-.51-.726.51.245-.906-.644-.574h.842l.282-.739zm4 0l.331.739h.718l-.564.574.218.906-.702-.51-.726.51.245-.906-.644-.574h.842l.282-.739zm-6-2l.331.739h.718l-.564.574.218.906-.702-.51-.726.51.245-.906-.644-.574h.842l.282-.739zm4 0l.331.739h.718l-.564.574.218.906-.702-.51-.726.51.245-.906-.644-.574h.842l.282-.739zm-12 0l.331.739h.718l-.564.574.218.906-.702-.51-.726.51.245-.906-.644-.574h.842l.282-.739zm4 0l.331.739h.718l-.564.574.218.906-.702-.51-.726.51.245-.906-.644-.574h.842l.282-.739zm12 0l.331.739h.718l-.564.574.218.906-.702-.51-.726.51.245-.906-.644-.574h.842l.282-.739zm-14-2l.331.739h.718l-.564.574.218.906-.702-.51-.726.51.245-.906-.644-.574h.842l.282-.739zm4 0l.331.739h.718l-.564.574.218.906-.702-.51-.726.51.245-.906-.644-.574h.842l.282-.739zm4 0l.331.739h.718l-.564.574.218.906-.702-.51-.726.51.245-.906-.644-.574h.842l.282-.739zm4 0l.331.739h.718l-.564.574.218.906-.702-.51-.726.51.245-.906-.644-.574h.842l.282-.739zm-14-2l.331.739h.718l-.564.574.218.906-.702-.51-.726.51.245-.906-.644-.574h.842l.282-.739zm4 0l.331.739h.718l-.564.574.218.906-.702-.51-.726.51.245-.906-.644-.574h.842l.282-.739zm4 0l.331.739h.718l-.564.574.218.906-.702-.51-.726.51.245-.906-.644-.574h.842l.282-.739zm4 0l.331.739h.718l-.564.574.218.906-.702-.51-.726.51.245-.906-.644-.574h.842l.282-.739zm4 0l.331.739h.718l-.564.574.218.906-.702-.51-.726.51.245-.906-.644-.574h.842l.282-.739z" fill="#F7FCFF"/></g></g></svg>