<svg width="32" height="24" viewBox="0 0 32 24" xmlns="http://www.w3.org/2000/svg" xmlns:xlink="http://www.w3.org/1999/xlink"><defs><path id="a" d="M0 0h32v24H0z"/><path id="c" d="M0 0h32v24H0z"/><path id="e" d="M0 0h32v24H0z"/></defs><g fill="none" fill-rule="evenodd"><mask id="b" fill="#fff"><use xlink:href="#a"/></mask><g mask="url(#b)"><mask id="d" fill="#fff"><use xlink:href="#c"/></mask><use fill="#2E42A5" xlink:href="#c"/><g mask="url(#d)"><mask id="f" fill="#fff"><use xlink:href="#e"/></mask><g mask="url(#f)"><g fill-rule="nonzero"><path fill="#FFF" d="M-3.563 22.285l7.042 2.978 28.68-22.025 3.715-4.426-7.53-.995-11.698 9.491-9.416 6.396z"/><path fill="#F50100" d="M-2.6 24.372L.989 26.1 34.54-1.599h-5.037z"/></g><g fill-rule="nonzero"><path fill="#FFF" d="M35.563 22.285l-7.042 2.978L-.159 3.238l-3.715-4.426 7.53-.995 11.698 9.491 9.416 6.396z"/><path fill="#F50100" d="M35.323 23.783l-3.588 1.728-14.286-11.86-4.236-1.324-17.445-13.5H.806l17.434 13.18 4.631 1.588z"/></g><path d="M18.778-1V9h14.25v6h-14.25v10h-5.556V15H-.973V9H13.22l.001-10h5.556z" stroke="#FFF" stroke-width="2" fill="#F50100"/></g></g></g></g></svg>